{
    "asset": {
        "generator": "https://3dviewer.net",
        "version": "2.0"
    },
    "scene": 0,
    "scenes": [
        {
            "nodes": [
                0
            ]
        }
    ],
    "nodes": [
        {
            "mesh": 0,
            "matrix": [
                0.0,
                0.0,
                -0.01,
                0.0,
                0.0,
                0.01,
                0.0,
                0.0,
                0.01,
                0.0,
                0.0,
                0.0,
                -0.148075,
                0.005162,
                -0.009092,
                1.0
            ]
        }
    ],
    "materials": [
        {
            "name": "M198193188",
            "pbrMetallicRoughness": {
                "baseColorFactor": [
                    0.5647115056965487,
                    0.5332764040016892,
                    0.5028864580233624,
                    1
                ],
                "metallicFactor": 0,
                "roughnessFactor": 0.8999999761581421
            },
            "emissiveFactor": [
                0,
                0,
                0
            ],
            "doubleSided": true,
            "alphaMode": "OPAQUE"
        }
    ],
    "meshes": [
        {
            "name": "\uc194\ub9ac\ub4dc1",
            "primitives": [
                {
                    "attributes": {
                        "POSITION": 1,
                        "NORMAL": 2
                    },
                    "mode": 4,
                    "material": 0,
                    "indices": 0
                }
            ]
        }
    ],
    "buffers": [
        {
            "uri": "model.bin",
            "byteLength": 160128
        }
    ],
    "bufferViews": [
        {
            "buffer": 0,
            "byteOffset": 0,
            "byteLength": 58560,
            "target": 34963
        },
        {
            "buffer": 0,
            "byteOffset": 58560,
            "byteLength": 50784,
            "target": 34962
        },
        {
            "buffer": 0,
            "byteOffset": 109344,
            "byteLength": 50784,
            "target": 34962
        }
    ],
    "accessors": [
        {
            "bufferView": 0,
            "byteOffset": 0,
            "componentType": 5125,
            "count": 14640,
            "type": "SCALAR"
        },
        {
            "bufferView": 1,
            "byteOffset": 0,
            "componentType": 5126,
            "count": 4232,
            "min": [
                -0.7505553364753723,
                -4.5,
                -0.6499999761581421
            ],
            "max": [
                0.7505553364753723,
                0.5299999713897705,
                0.6499999761581421
            ],
            "type": "VEC3"
        },
        {
            "bufferView": 2,
            "byteOffset": 0,
            "componentType": 5126,
            "count": 4232,
            "type": "VEC3"
        }
    ]
}