{
    "asset": {
        "generator": "https://3dviewer.net",
        "version": "2.0"
    },
    "scene": 0,
    "scenes": [
        {
            "nodes": [
                0
            ]
        }
    ],
    "nodes": [
        {
            "mesh": 0,
            "matrix": [
                0.01,
                0.0,
                0.0,
                0.0,
                0.0,
                0.008001,
                -0.005999,
                0.0,
                0.0,
                0.005999,
                0.008001,
                0.0,
                -0.304489,
                0.009609,
                0.001806,
                1.0
            ]
        }
    ],
    "materials": [
        {
            "name": "M198193188",
            "pbrMetallicRoughness": {
                "baseColorFactor": [
                    0.5647115056965487,
                    0.5332764040016892,
                    0.5028864580233624,
                    1
                ],
                "metallicFactor": 0,
                "roughnessFactor": 0.8999999761581421
            },
            "emissiveFactor": [
                0,
                0,
                0
            ],
            "doubleSided": true,
            "alphaMode": "OPAQUE"
        },
        {
            "name": "M165158150",
            "pbrMetallicRoughness": {
                "baseColorFactor": [
                    0.37626212298046485,
                    0.34191442489801843,
                    0.3049873140591091,
                    1
                ],
                "metallicFactor": 0,
                "roughnessFactor": 0.8999999761581421
            },
            "emissiveFactor": [
                0,
                0,
                0
            ],
            "doubleSided": true,
            "alphaMode": "OPAQUE"
        }
    ],
    "meshes": [
        {
            "name": "\uc194\ub9ac\ub4dc1",
            "primitives": [
                {
                    "attributes": {
                        "POSITION": 1,
                        "NORMAL": 2
                    },
                    "mode": 4,
                    "material": 0,
                    "indices": 0
                },
                {
                    "attributes": {
                        "POSITION": 4,
                        "NORMAL": 5
                    },
                    "mode": 4,
                    "material": 1,
                    "indices": 3
                }
            ]
        }
    ],
    "buffers": [
        {
            "uri": "model.bin",
            "byteLength": 155592
        }
    ],
    "bufferViews": [
        {
            "buffer": 0,
            "byteOffset": 0,
            "byteLength": 20052,
            "target": 34963
        },
        {
            "buffer": 0,
            "byteOffset": 20052,
            "byteLength": 20628,
            "target": 34962
        },
        {
            "buffer": 0,
            "byteOffset": 40680,
            "byteLength": 20628,
            "target": 34962
        },
        {
            "buffer": 0,
            "byteOffset": 61308,
            "byteLength": 37884,
            "target": 34963
        },
        {
            "buffer": 0,
            "byteOffset": 99192,
            "byteLength": 28200,
            "target": 34962
        },
        {
            "buffer": 0,
            "byteOffset": 127392,
            "byteLength": 28200,
            "target": 34962
        }
    ],
    "accessors": [
        {
            "bufferView": 0,
            "byteOffset": 0,
            "componentType": 5125,
            "count": 5013,
            "type": "SCALAR"
        },
        {
            "bufferView": 1,
            "byteOffset": 0,
            "componentType": 5126,
            "count": 1719,
            "min": [
                11.800000190734863,
                -8,
                -7.199999809265137
            ],
            "max": [
                58.900001525878906,
                8,
                7.199999809265137
            ],
            "type": "VEC3"
        },
        {
            "bufferView": 2,
            "byteOffset": 0,
            "componentType": 5126,
            "count": 1719,
            "type": "VEC3"
        },
        {
            "bufferView": 3,
            "byteOffset": 0,
            "componentType": 5125,
            "count": 9471,
            "type": "SCALAR"
        },
        {
            "bufferView": 4,
            "byteOffset": 0,
            "componentType": 5126,
            "count": 2350,
            "min": [
                0,
                -7.36946439743042,
                -3.9000000953674316
            ],
            "max": [
                57.400001525878906,
                7.36946439743042,
                3.9000000953674316
            ],
            "type": "VEC3"
        },
        {
            "bufferView": 5,
            "byteOffset": 0,
            "componentType": 5126,
            "count": 2350,
            "type": "VEC3"
        }
    ]
}