{
    "asset": {
        "generator": "https://3dviewer.net",
        "version": "2.0"
    },
    "scene": 0,
    "scenes": [
        {
            "nodes": [
                0
            ]
        }
    ],
    "nodes": [
        {
            "mesh": 0,
            "matrix": [
                0.0,
                0.0,
                -0.01,
                0.0,
                0.0,
                0.01,
                0.0,
                0.0,
                0.01,
                0.0,
                0.0,
                0.0,
                -0.107602,
                0.175111,
                0.029048,
                1.0
            ]
        }
    ],
    "materials": [
        {
            "name": "M229229229",
            "pbrMetallicRoughness": {
                "baseColorFactor": [
                    0.7835377915215659,
                    0.7835377915215659,
                    0.7835377915215659,
                    1
                ],
                "metallicFactor": 0,
                "roughnessFactor": 0.8999999761581421
            },
            "emissiveFactor": [
                0,
                0,
                0
            ],
            "doubleSided": true,
            "alphaMode": "OPAQUE"
        }
    ],
    "meshes": [
        {
            "name": "\uc194\ub9ac\ub4dc1",
            "primitives": [
                {
                    "attributes": {
                        "POSITION": 1,
                        "NORMAL": 2
                    },
                    "mode": 4,
                    "material": 0,
                    "indices": 0
                }
            ]
        }
    ],
    "buffers": [
        {
            "uri": "model.bin",
            "byteLength": 12048
        }
    ],
    "bufferViews": [
        {
            "buffer": 0,
            "byteOffset": 0,
            "byteLength": 3936,
            "target": 34963
        },
        {
            "buffer": 0,
            "byteOffset": 3936,
            "byteLength": 4056,
            "target": 34962
        },
        {
            "buffer": 0,
            "byteOffset": 7992,
            "byteLength": 4056,
            "target": 34962
        }
    ],
    "accessors": [
        {
            "bufferView": 0,
            "byteOffset": 0,
            "componentType": 5125,
            "count": 984,
            "type": "SCALAR"
        },
        {
            "bufferView": 1,
            "byteOffset": 0,
            "componentType": 5126,
            "count": 338,
            "min": [
                -1.690000057220459,
                -1.685274362564087,
                -8.199999809265137
            ],
            "max": [
                1.690000057220459,
                1.685274362564087,
                0
            ],
            "type": "VEC3"
        },
        {
            "bufferView": 2,
            "byteOffset": 0,
            "componentType": 5126,
            "count": 338,
            "type": "VEC3"
        }
    ]
}