{
    "asset": {
        "generator": "https://3dviewer.net",
        "version": "2.0"
    },
    "scene": 0,
    "scenes": [
        {
            "nodes": [
                0
            ]
        }
    ],
    "nodes": [
        {
            "mesh": 0,
            "matrix": [
                0.01,
                0.0,
                0.0,
                0.0,
                0.0,
                0.01,
                0.0,
                0.0,
                0.0,
                0.0,
                0.01,
                0.0,
                0.0,
                -0.2,
                0.0,
                1.0
            ]
        }
    ],
    "materials": [
        {
            "name": "IronGray",
            "pbrMetallicRoughness": {
                "baseColorFactor": [
                    0.10224173307914941,
                    0.12213877222015301,
                    0.13286832154414627,
                    1
                ],
                "metallicFactor": 0.8181819915771484,
                "roughnessFactor": 0.699999988079071
            },
            "emissiveFactor": [
                0,
                0,
                0
            ],
            "doubleSided": true,
            "alphaMode": "OPAQUE"
        },
        {
            "name": "ChromePolished",
            "pbrMetallicRoughness": {
                "baseColorFactor": [
                    0.9046611743890203,
                    0.9046611743890203,
                    0.9046611743890203,
                    1
                ],
                "metallicFactor": 0,
                "roughnessFactor": 0.07999999821186066
            },
            "emissiveFactor": [
                0,
                0,
                0
            ],
            "doubleSided": true,
            "alphaMode": "OPAQUE"
        }
    ],
    "meshes": [
        {
            "name": "Solid1",
            "primitives": [
                {
                    "attributes": {
                        "POSITION": 1,
                        "NORMAL": 2
                    },
                    "mode": 4,
                    "material": 0,
                    "indices": 0
                },
                {
                    "attributes": {
                        "POSITION": 4,
                        "NORMAL": 5
                    },
                    "mode": 4,
                    "material": 1,
                    "indices": 3
                }
            ]
        }
    ],
    "buffers": [
        {
            "uri": "model.bin",
            "byteLength": 39816
        }
    ],
    "bufferViews": [
        {
            "buffer": 0,
            "byteOffset": 0,
            "byteLength": 4704,
            "target": 34963
        },
        {
            "buffer": 0,
            "byteOffset": 4704,
            "byteLength": 5088,
            "target": 34962
        },
        {
            "buffer": 0,
            "byteOffset": 9792,
            "byteLength": 5088,
            "target": 34962
        },
        {
            "buffer": 0,
            "byteOffset": 14880,
            "byteLength": 6696,
            "target": 34963
        },
        {
            "buffer": 0,
            "byteOffset": 21576,
            "byteLength": 9120,
            "target": 34962
        },
        {
            "buffer": 0,
            "byteOffset": 30696,
            "byteLength": 9120,
            "target": 34962
        }
    ],
    "accessors": [
        {
            "bufferView": 0,
            "byteOffset": 0,
            "componentType": 5125,
            "count": 1176,
            "type": "SCALAR"
        },
        {
            "bufferView": 1,
            "byteOffset": 0,
            "componentType": 5126,
            "count": 424,
            "min": [
                -19.533071517944336,
                0,
                -19.535219192504883
            ],
            "max": [
                19.535219192504883,
                10.199999809265137,
                19.535219192504883
            ],
            "type": "VEC3"
        },
        {
            "bufferView": 2,
            "byteOffset": 0,
            "componentType": 5126,
            "count": 424,
            "type": "VEC3"
        },
        {
            "bufferView": 3,
            "byteOffset": 0,
            "componentType": 5125,
            "count": 1674,
            "type": "SCALAR"
        },
        {
            "bufferView": 4,
            "byteOffset": 0,
            "componentType": 5126,
            "count": 760,
            "min": [
                -19.533071517944336,
                0,
                -19.535219192504883
            ],
            "max": [
                19.535219192504883,
                8.199999809265137,
                19.535219192504883
            ],
            "type": "VEC3"
        },
        {
            "bufferView": 5,
            "byteOffset": 0,
            "componentType": 5126,
            "count": 760,
            "type": "VEC3"
        }
    ]
}