{
    "asset": {
        "generator": "https://3dviewer.net",
        "version": "2.0"
    },
    "scene": 0,
    "scenes": [
        {
            "nodes": [
                0
            ]
        }
    ],
    "nodes": [
        {
            "mesh": 0,
            "matrix": [
                0.0,
                0.0,
                -0.01,
                0.0,
                0.0,
                0.01,
                0.0,
                0.0,
                0.01,
                0.0,
                0.0,
                0.0,
                -0.033557,
                0.246419,
                -0.021792,
                1.0
            ]
        }
    ],
    "materials": [
        {
            "name": "M199194189",
            "pbrMetallicRoughness": {
                "baseColorFactor": [
                    0.5711248294565854,
                    0.5394794890033748,
                    0.508881320845802,
                    1
                ],
                "metallicFactor": 0,
                "roughnessFactor": 0.8999999761581421
            },
            "emissiveFactor": [
                0,
                0,
                0
            ],
            "doubleSided": true,
            "alphaMode": "OPAQUE"
        }
    ],
    "meshes": [
        {
            "name": "\uc194\ub9ac\ub4dc1",
            "primitives": [
                {
                    "attributes": {
                        "POSITION": 1,
                        "NORMAL": 2
                    },
                    "mode": 4,
                    "material": 0,
                    "indices": 0
                }
            ]
        }
    ],
    "buffers": [
        {
            "uri": "model.bin",
            "byteLength": 52896
        }
    ],
    "bufferViews": [
        {
            "buffer": 0,
            "byteOffset": 0,
            "byteLength": 18144,
            "target": 34963
        },
        {
            "buffer": 0,
            "byteOffset": 18144,
            "byteLength": 17376,
            "target": 34962
        },
        {
            "buffer": 0,
            "byteOffset": 35520,
            "byteLength": 17376,
            "target": 34962
        }
    ],
    "accessors": [
        {
            "bufferView": 0,
            "byteOffset": 0,
            "componentType": 5125,
            "count": 4536,
            "type": "SCALAR"
        },
        {
            "bufferView": 1,
            "byteOffset": 0,
            "componentType": 5126,
            "count": 1448,
            "min": [
                -4.699999809265137,
                -20.1200008392334,
                -1.899999976158142
            ],
            "max": [
                4.699999809265137,
                2.2471120357513428,
                1.899999976158142
            ],
            "type": "VEC3"
        },
        {
            "bufferView": 2,
            "byteOffset": 0,
            "componentType": 5126,
            "count": 1448,
            "type": "VEC3"
        }
    ]
}