<svg width="20" height="20" viewBox="0 0 20 20" fill="none" xmlns="http://www.w3.org/2000/svg">
<path d="M10.6916 1.81668C10.4744 1.71764 10.2385 1.66638 9.99989 1.66638C9.76123 1.66638 9.52536 1.71764 9.30822 1.81668L2.16656 5.06668C2.01868 5.13188 1.89295 5.23868 1.80469 5.37406C1.71643 5.50944 1.66943 5.66757 1.66943 5.82918C1.66943 5.99079 1.71643 6.14892 1.80469 6.2843C1.89295 6.41968 2.01868 6.52648 2.16656 6.59168L9.31656 9.85001C9.53369 9.94905 9.76956 10.0003 10.0082 10.0003C10.2469 10.0003 10.4828 9.94905 10.6999 9.85001L17.8499 6.60001C17.9978 6.53481 18.1235 6.42801 18.2118 6.29263C18.3 6.15725 18.347 5.99913 18.347 5.83751C18.347 5.6759 18.3 5.51777 18.2118 5.38239C18.1235 5.24701 17.9978 5.14022 17.8499 5.07501L10.6916 1.81668Z" stroke="#99A1AF" stroke-width="1.66667" stroke-linecap="round" stroke-linejoin="round"/>
<path d="M1.66651 10C1.66611 10.1594 1.71144 10.3155 1.7971 10.45C1.88277 10.5844 2.00519 10.6914 2.14984 10.7583L9.31651 14.0167C9.53251 14.1145 9.76689 14.1651 10.004 14.1651C10.2411 14.1651 10.4755 14.1145 10.6915 14.0167L17.8415 10.7667C17.989 10.7004 18.114 10.5926 18.2013 10.4564C18.2886 10.3203 18.3345 10.1617 18.3332 10" stroke="#99A1AF" stroke-width="1.66667" stroke-linecap="round" stroke-linejoin="round"/>
<path d="M1.66651 14.1667C1.66611 14.3261 1.71144 14.4822 1.7971 14.6166C1.88277 14.7511 2.00519 14.8581 2.14984 14.925L9.31651 18.1834C9.53251 18.2812 9.76689 18.3318 10.004 18.3318C10.2411 18.3318 10.4755 18.2812 10.6915 18.1834L17.8415 14.9334C17.989 14.8671 18.114 14.7593 18.2013 14.6231C18.2886 14.487 18.3345 14.3284 18.3332 14.1667" stroke="#99A1AF" stroke-width="1.66667" stroke-linecap="round" stroke-linejoin="round"/>
</svg>
