<svg width="44" height="44" viewBox="0 0 44 44" fill="none" xmlns="http://www.w3.org/2000/svg">
<g clip-path="url(#clip0_218_25858)">
<path fill-rule="evenodd" clip-rule="evenodd" d="M23.2698 18.982C23.2905 18.9837 23.3112 18.982 23.3313 18.9768C23.4291 18.9514 23.529 19.0101 23.5545 19.1079L23.8471 20.229C23.9072 20.4594 24.1147 20.6205 24.3528 20.6217L39.0797 20.6956C39.3699 20.697 39.6039 20.9334 39.6025 21.2236L39.593 23.1122C39.5915 23.4024 39.3552 23.6364 39.065 23.635L30.5877 23.5925C29.9973 23.5895 29.8516 24.4123 30.4071 24.6122L38.7082 27.5995C38.9812 27.6977 39.1229 27.9986 39.0248 28.2715L38.372 30.0873C38.2738 30.3604 37.9728 30.5022 37.6997 30.4039L30.5199 27.8201C30.004 27.6344 29.5843 28.264 29.9542 28.6688L38.0724 37.5517C38.2682 37.7659 38.2532 38.0983 38.039 38.294L36.4689 39.7287C36.2548 39.9244 35.9225 39.9095 35.7267 39.6953L27.6451 30.8523C27.2752 30.4475 26.6104 30.8089 26.7489 31.3394L28.6858 38.7562C28.7591 39.0369 28.591 39.3239 28.3103 39.3973L26.4667 39.879C26.1859 39.9524 25.8989 39.7842 25.8255 39.5035L23.4855 30.5434C23.3363 29.9721 22.5038 30.0433 22.4537 30.6316L21.7063 39.413C21.6817 39.7022 21.4273 39.9166 21.1382 39.8919L19.2557 39.7312C18.9666 39.7066 18.7523 39.4523 18.7769 39.1632L20.0284 24.4595C20.0486 24.2223 19.9068 24.0012 19.6828 23.9206L18.6083 23.5339C18.6057 23.5329 18.6029 23.5324 18.6 23.5324L18.5813 23.5323C18.5778 23.5323 18.575 23.5294 18.575 23.526C18.5751 23.5233 18.5734 23.5209 18.5709 23.52L18.5109 23.4985C18.4607 23.4806 18.4347 23.4254 18.4527 23.3753L18.5545 23.0924C18.5697 23.05 18.5777 23.0053 18.5779 22.9602L18.5871 21.1182C18.5886 20.8281 18.825 20.594 19.1151 20.5955L19.4564 20.5972C19.5886 20.5978 19.7162 20.5486 19.8137 20.4594L20.2642 20.047C20.3615 19.958 20.4217 19.8357 20.433 19.7044L20.4702 19.271C20.495 18.9821 20.7491 18.7679 21.0381 18.7924L23.2698 18.982Z" fill="#CFFF5E"/>
<path d="M11.2893 12.4132C14.4979 9.41064 17.9933 7.42992 20.9958 6.60826C24.0715 5.76658 26.2206 6.22174 27.3152 7.39143C28.4097 8.56115 28.7214 10.7357 27.6776 13.7488C26.6587 16.6902 24.4506 20.0466 21.242 23.0491C18.0333 26.0517 14.5379 28.0324 11.5354 28.854C8.45974 29.6957 6.31066 29.2406 5.21608 28.0709C4.12153 26.9011 3.80986 24.7266 4.8536 21.7135C5.87249 18.7721 8.0806 15.4157 11.2893 12.4132Z" fill="#161921" stroke="#CFFF5E" stroke-width="2.93333"/>
<path d="M16.0207 16.1076C19.6964 12.7761 23.6844 10.5958 27.106 9.71764C30.601 8.8207 33.0942 9.35633 34.3706 10.7644C35.6469 12.1726 35.9355 14.7063 34.7005 18.0966C33.4913 21.4157 30.9314 25.1716 27.2557 28.5032C23.5801 31.8346 19.592 34.0137 16.1705 34.8918C12.6755 35.7887 10.1822 35.2532 8.90586 33.8451C7.62963 32.4368 7.34088 29.9031 8.57596 26.5128C9.78508 23.1938 12.3452 19.4391 16.0207 16.1076Z" stroke="#CFFF5E" stroke-width="2.93333"/>
<rect x="27.4077" y="18.2344" width="11.4682" height="2.38535" transform="rotate(0.287215 27.4077 18.2344)" fill="#161921"/>
<rect x="20.377" y="20.0649" width="10.64" height="2.37852" transform="rotate(94.8024 20.377 20.0649)" fill="#161921"/>
</g>
<defs>
<clipPath id="clip0_218_25858">
<rect width="44" height="44" fill="white"/>
</clipPath>
</defs>
</svg>
