<svg width="34" height="34" viewBox="0 0 34 34" fill="none" xmlns="http://www.w3.org/2000/svg">
<rect width="34" height="34" rx="17" fill="#4A5565"/>
<path fill-rule="evenodd" clip-rule="evenodd" d="M13 12C13 10.9391 13.4214 9.92172 14.1716 9.17157C14.9217 8.42143 15.9391 8 17 8C18.0609 8 19.0783 8.42143 19.8284 9.17157C20.5786 9.92172 21 10.9391 21 12C21 13.0609 20.5786 14.0783 19.8284 14.8284C19.0783 15.5786 18.0609 16 17 16C15.9391 16 14.9217 15.5786 14.1716 14.8284C13.4214 14.0783 13 13.0609 13 12ZM13 18C11.6739 18 10.4021 18.5268 9.46447 19.4645C8.52678 20.4021 8 21.6739 8 23C8 23.7956 8.31607 24.5587 8.87868 25.1213C9.44129 25.6839 10.2044 26 11 26H23C23.7956 26 24.5587 25.6839 25.1213 25.1213C25.6839 24.5587 26 23.7956 26 23C26 21.6739 25.4732 20.4021 24.5355 19.4645C23.5979 18.5268 22.3261 18 21 18H13Z" fill="#B8BEC8"/>
</svg>
