{
    "asset": {
        "generator": "https://3dviewer.net",
        "version": "2.0"
    },
    "scene": 0,
    "scenes": [
        {
            "nodes": [
                0,
                1
            ]
        }
    ],
    "nodes": [
        {
            "mesh": 0,
            "matrix": [
                0.01,
                0.0,
                0.0,
                0.0,
                0.0,
                0.01,
                0.0,
                0.0,
                0.0,
                0.0,
                0.01,
                0.0,
                0.038876,
                0.321239,
                0.320627,
                1.0
            ]
        },
        {
            "mesh": 1,
            "matrix": [
                0.01,
                0,
                0,
                0,
                0,
                0.01,
                0,
                0,
                0,
                0,
                0.01,
                0,
                0,
                0,
                0,
                1
            ]
        }
    ],
    "materials": [
        {
            "name": "Red",
            "pbrMetallicRoughness": {
                "baseColorFactor": [
                    0.450785782828426,
                    0,
                    0,
                    1
                ],
                "metallicFactor": 0,
                "roughnessFactor": 0.42500001192092896
            },
            "emissiveFactor": [
                0,
                0,
                0
            ],
            "doubleSided": true,
            "alphaMode": "OPAQUE",
            "normalTexture": {
                "index": 0,
                "extensions": {
                    "KHR_texture_transform": {
                        "offset": [
                            0,
                            0
                        ],
                        "scale": [
                            0.007874015718698502,
                            0.001312335953116417
                        ],
                        "rotation": 1.5707963705062866
                    }
                }
            }
        },
        {
            "name": "ChromePolished",
            "pbrMetallicRoughness": {
                "baseColorFactor": [
                    0.9046611743890203,
                    0.9046611743890203,
                    0.9046611743890203,
                    1
                ],
                "metallicFactor": 0,
                "roughnessFactor": 0.07999999821186066
            },
            "emissiveFactor": [
                0,
                0,
                0
            ],
            "doubleSided": true,
            "alphaMode": "OPAQUE"
        },
        {
            "name": "ChromePolishedBlack",
            "pbrMetallicRoughness": {
                "baseColorFactor": [
                    0.4178850708380236,
                    0.4178850708380236,
                    0.4178850708380236,
                    1
                ],
                "metallicFactor": 0,
                "roughnessFactor": 0.10000000149011612
            },
            "emissiveFactor": [
                0,
                0,
                0
            ],
            "doubleSided": true,
            "alphaMode": "OPAQUE"
        }
    ],
    "meshes": [
        {
            "name": "Solid1",
            "primitives": [
                {
                    "attributes": {
                        "POSITION": 1,
                        "NORMAL": 2,
                        "TEXCOORD_0": 3
                    },
                    "mode": 4,
                    "material": 0,
                    "indices": 0
                },
                {
                    "attributes": {
                        "POSITION": 5,
                        "NORMAL": 6,
                        "TEXCOORD_0": 7
                    },
                    "mode": 4,
                    "material": 1,
                    "indices": 4
                },
                {
                    "attributes": {
                        "POSITION": 9,
                        "NORMAL": 10,
                        "TEXCOORD_0": 11
                    },
                    "mode": 4,
                    "material": 2,
                    "indices": 8
                }
            ]
        },
        {
            "name": "Solid2",
            "primitives": [
                {
                    "attributes": {
                        "POSITION": 13,
                        "NORMAL": 14
                    },
                    "mode": 4,
                    "material": 2,
                    "indices": 12
                }
            ]
        }
    ],
    "buffers": [
        {
            "uri": "model.bin",
            "byteLength": 62088
        }
    ],
    "bufferViews": [
        {
            "buffer": 0,
            "byteOffset": 0,
            "byteLength": 4572,
            "target": 34963
        },
        {
            "buffer": 0,
            "byteOffset": 4572,
            "byteLength": 4884,
            "target": 34962
        },
        {
            "buffer": 0,
            "byteOffset": 9456,
            "byteLength": 4884,
            "target": 34962
        },
        {
            "buffer": 0,
            "byteOffset": 14340,
            "byteLength": 3256,
            "target": 34962
        },
        {
            "buffer": 0,
            "byteOffset": 17596,
            "byteLength": 1140,
            "target": 34963
        },
        {
            "buffer": 0,
            "byteOffset": 18736,
            "byteLength": 1164,
            "target": 34962
        },
        {
            "buffer": 0,
            "byteOffset": 19900,
            "byteLength": 1164,
            "target": 34962
        },
        {
            "buffer": 0,
            "byteOffset": 21064,
            "byteLength": 776,
            "target": 34962
        },
        {
            "buffer": 0,
            "byteOffset": 21840,
            "byteLength": 9960,
            "target": 34963
        },
        {
            "buffer": 0,
            "byteOffset": 31800,
            "byteLength": 11088,
            "target": 34962
        },
        {
            "buffer": 0,
            "byteOffset": 42888,
            "byteLength": 11088,
            "target": 34962
        },
        {
            "buffer": 0,
            "byteOffset": 53976,
            "byteLength": 7392,
            "target": 34962
        },
        {
            "buffer": 0,
            "byteOffset": 61368,
            "byteLength": 144,
            "target": 34963
        },
        {
            "buffer": 0,
            "byteOffset": 61512,
            "byteLength": 288,
            "target": 34962
        },
        {
            "buffer": 0,
            "byteOffset": 61800,
            "byteLength": 288,
            "target": 34962
        }
    ],
    "accessors": [
        {
            "bufferView": 0,
            "byteOffset": 0,
            "componentType": 5125,
            "count": 1143,
            "type": "SCALAR"
        },
        {
            "bufferView": 1,
            "byteOffset": 0,
            "componentType": 5126,
            "count": 407,
            "min": [
                -3.4938530921936035,
                -3.4984629154205322,
                0
            ],
            "max": [
                3.5,
                3.4984629154205322,
                2.5999999046325684
            ],
            "type": "VEC3"
        },
        {
            "bufferView": 2,
            "byteOffset": 0,
            "componentType": 5126,
            "count": 407,
            "type": "VEC3"
        },
        {
            "bufferView": 3,
            "byteOffset": 0,
            "componentType": 5126,
            "count": 407,
            "type": "VEC2"
        },
        {
            "bufferView": 4,
            "byteOffset": 0,
            "componentType": 5125,
            "count": 285,
            "type": "SCALAR"
        },
        {
            "bufferView": 5,
            "byteOffset": 0,
            "componentType": 5126,
            "count": 97,
            "min": [
                -2.299999952316284,
                -2.299999952316284,
                1
            ],
            "max": [
                2.299999952316284,
                2.299999952316284,
                2.299999952316284
            ],
            "type": "VEC3"
        },
        {
            "bufferView": 6,
            "byteOffset": 0,
            "componentType": 5126,
            "count": 97,
            "type": "VEC3"
        },
        {
            "bufferView": 7,
            "byteOffset": 0,
            "componentType": 5126,
            "count": 97,
            "type": "VEC2"
        },
        {
            "bufferView": 8,
            "byteOffset": 0,
            "componentType": 5125,
            "count": 2490,
            "type": "SCALAR"
        },
        {
            "bufferView": 9,
            "byteOffset": 0,
            "componentType": 5126,
            "count": 924,
            "min": [
                -4.446824073791504,
                -3.4984629154205322,
                0
            ],
            "max": [
                4.446824073791504,
                3.4984629154205322,
                5.395878791809082
            ],
            "type": "VEC3"
        },
        {
            "bufferView": 10,
            "byteOffset": 0,
            "componentType": 5126,
            "count": 924,
            "type": "VEC3"
        },
        {
            "bufferView": 11,
            "byteOffset": 0,
            "componentType": 5126,
            "count": 924,
            "type": "VEC2"
        },
        {
            "bufferView": 12,
            "byteOffset": 0,
            "componentType": 5125,
            "count": 36,
            "type": "SCALAR"
        },
        {
            "bufferView": 13,
            "byteOffset": 0,
            "componentType": 5126,
            "count": 24,
            "min": [
                -0.949999988079071,
                -1.2999999523162842,
                5.395878791809082
            ],
            "max": [
                0.949999988079071,
                1.2999999523162842,
                5.695878982543945
            ],
            "type": "VEC3"
        },
        {
            "bufferView": 14,
            "byteOffset": 0,
            "componentType": 5126,
            "count": 24,
            "type": "VEC3"
        }
    ],
    "images": [
        {
            "uri": "Binary_0.png"
        }
    ],
    "textures": [
        {
            "source": 0
        }
    ],
    "extensionsUsed": [
        "KHR_texture_transform"
    ]
}