{
    "asset": {
        "generator": "https://3dviewer.net",
        "version": "2.0"
    },
    "scene": 0,
    "scenes": [
        {
            "nodes": [
                0
            ]
        }
    ],
    "nodes": [
        {
            "mesh": 0,
            "matrix": [
                0.0,
                0.0,
                -0.01,
                0.0,
                0.0,
                0.01,
                0.0,
                0.0,
                0.01,
                0.0,
                0.0,
                0.0,
                0.19351344317949792,
                0.215599,
                0.029048,
                1.0
            ]
        }
    ],
    "materials": [
        {
            "name": "M228233237",
            "pbrMetallicRoughness": {
                "baseColorFactor": [
                    0.775822218312646,
                    0.8148465722120952,
                    0.8468732315065057,
                    1
                ],
                "metallicFactor": 0,
                "roughnessFactor": 0.8999999761581421
            },
            "emissiveFactor": [
                0,
                0,
                0
            ],
            "doubleSided": true,
            "alphaMode": "OPAQUE"
        }
    ],
    "meshes": [
        {
            "name": "\uc194\ub9ac\ub4dc1",
            "primitives": [
                {
                    "attributes": {
                        "POSITION": 1,
                        "NORMAL": 2
                    },
                    "mode": 4,
                    "material": 0,
                    "indices": 0
                }
            ]
        }
    ],
    "buffers": [
        {
            "uri": "model.bin",
            "byteLength": 16944
        }
    ],
    "bufferViews": [
        {
            "buffer": 0,
            "byteOffset": 0,
            "byteLength": 5616,
            "target": 34963
        },
        {
            "buffer": 0,
            "byteOffset": 5616,
            "byteLength": 5664,
            "target": 34962
        },
        {
            "buffer": 0,
            "byteOffset": 11280,
            "byteLength": 5664,
            "target": 34962
        }
    ],
    "accessors": [
        {
            "bufferView": 0,
            "byteOffset": 0,
            "componentType": 5125,
            "count": 1404,
            "type": "SCALAR"
        },
        {
            "bufferView": 1,
            "byteOffset": 0,
            "componentType": 5126,
            "count": 472,
            "min": [
                -4.25,
                0,
                -4.25
            ],
            "max": [
                4.25,
                0.4300000071525574,
                4.25
            ],
            "type": "VEC3"
        },
        {
            "bufferView": 2,
            "byteOffset": 0,
            "componentType": 5126,
            "count": 472,
            "type": "VEC3"
        }
    ]
}