{
    "asset": {
        "generator": "https://3dviewer.net",
        "version": "2.0"
    },
    "scene": 0,
    "scenes": [
        {
            "nodes": [
                0
            ]
        }
    ],
    "nodes": [
        {
            "mesh": 0,
            "matrix": [
                0.625189,
                0.027506,
                0.779988,
                0.0,
                0.780473,
                -0.022033,
                -0.624801,
                0.0,
                -0.0,
                0.999379,
                -0.035242,
                0.0,
                0.098066,
                0.002178,
                -0.091793,
                1.0
            ]
        }
    ],
    "materials": [
        {
            "name": "IronGray",
            "pbrMetallicRoughness": {
                "baseColorFactor": [
                    0.10224173307914941,
                    0.12213877222015301,
                    0.13286832154414627,
                    1
                ],
                "metallicFactor": 0.8181819915771484,
                "roughnessFactor": 0.699999988079071
            },
            "emissiveFactor": [
                0,
                0,
                0
            ],
            "doubleSided": true,
            "alphaMode": "OPAQUE"
        }
    ],
    "meshes": [
        {
            "name": "Solid1",
            "primitives": [
                {
                    "attributes": {
                        "POSITION": 1,
                        "NORMAL": 2
                    },
                    "mode": 4,
                    "material": 0,
                    "indices": 0
                }
            ]
        }
    ],
    "buffers": [
        {
            "uri": "buffer.bin",
            "byteLength": 50856
        }
    ],
    "bufferViews": [
        {
            "buffer": 0,
            "byteOffset": 0,
            "byteLength": 21360,
            "target": 34963
        },
        {
            "buffer": 0,
            "byteOffset": 21360,
            "byteLength": 14748,
            "target": 34962
        },
        {
            "buffer": 0,
            "byteOffset": 36108,
            "byteLength": 14748,
            "target": 34962
        }
    ],
    "accessors": [
        {
            "bufferView": 0,
            "byteOffset": 0,
            "componentType": 5125,
            "count": 5340,
            "type": "SCALAR"
        },
        {
            "bufferView": 1,
            "byteOffset": 0,
            "componentType": 5126,
            "count": 1229,
            "min": [
                -7.200263977050781,
                0,
                -0.9420145750045776
            ],
            "max": [
                7.200263977050781,
                2.299999952316284,
                0.9420145750045776
            ],
            "type": "VEC3"
        },
        {
            "bufferView": 2,
            "byteOffset": 0,
            "componentType": 5126,
            "count": 1229,
            "type": "VEC3"
        }
    ]
}