{
    "asset": {
        "generator": "https://3dviewer.net",
        "version": "2.0"
    },
    "scene": 0,
    "scenes": [
        {
            "nodes": [
                0
            ]
        }
    ],
    "nodes": [
        {
            "mesh": 0,
            "matrix": [
                0.01,
                0.0,
                0.0,
                0.0,
                0.0,
                0.01,
                0.0,
                0.0,
                0.0,
                0.0,
                0.01,
                0.0,
                0.0,
                -0.120312,
                0.0,
                1.0
            ]
        }
    ],
    "materials": [
        {
            "name": "OrangeRed",
            "pbrMetallicRoughness": {
                "baseColorFactor": [
                    0.46778379610254284,
                    0.006048833020386069,
                    0.0036765073221525194,
                    1
                ],
                "metallicFactor": 0,
                "roughnessFactor": 0.42500001192092896
            },
            "emissiveFactor": [
                0,
                0,
                0
            ],
            "doubleSided": true,
            "alphaMode": "OPAQUE",
            "normalTexture": {
                "index": 0,
                "extensions": {
                    "KHR_texture_transform": {
                        "offset": [
                            0,
                            0
                        ],
                        "scale": [
                            0.007874015718698502,
                            0.001312335953116417
                        ],
                        "rotation": 1.5707963705062866
                    }
                }
            }
        },
        {
            "name": "ChromePolished",
            "pbrMetallicRoughness": {
                "baseColorFactor": [
                    0.9046611743890203,
                    0.9046611743890203,
                    0.9046611743890203,
                    1
                ],
                "metallicFactor": 0,
                "roughnessFactor": 0.07999999821186066
            },
            "emissiveFactor": [
                0,
                0,
                0
            ],
            "doubleSided": true,
            "alphaMode": "OPAQUE"
        },
        {
            "name": "ChromePolishedBlack",
            "pbrMetallicRoughness": {
                "baseColorFactor": [
                    0.4178850708380236,
                    0.4178850708380236,
                    0.4178850708380236,
                    1
                ],
                "metallicFactor": 0,
                "roughnessFactor": 0.10000000149011612
            },
            "emissiveFactor": [
                0,
                0,
                0
            ],
            "doubleSided": true,
            "alphaMode": "OPAQUE"
        }
    ],
    "meshes": [
        {
            "name": "Solid1",
            "primitives": [
                {
                    "attributes": {
                        "POSITION": 1,
                        "NORMAL": 2,
                        "TEXCOORD_0": 3
                    },
                    "mode": 4,
                    "material": 0,
                    "indices": 0
                },
                {
                    "attributes": {
                        "POSITION": 5,
                        "NORMAL": 6,
                        "TEXCOORD_0": 7
                    },
                    "mode": 4,
                    "material": 1,
                    "indices": 4
                },
                {
                    "attributes": {
                        "POSITION": 9,
                        "NORMAL": 10,
                        "TEXCOORD_0": 11
                    },
                    "mode": 4,
                    "material": 2,
                    "indices": 8
                }
            ]
        }
    ],
    "buffers": [
        {
            "uri": "model.bin",
            "byteLength": 163824
        }
    ],
    "bufferViews": [
        {
            "buffer": 0,
            "byteOffset": 0,
            "byteLength": 11364,
            "target": 34963
        },
        {
            "buffer": 0,
            "byteOffset": 11364,
            "byteLength": 11964,
            "target": 34962
        },
        {
            "buffer": 0,
            "byteOffset": 23328,
            "byteLength": 11964,
            "target": 34962
        },
        {
            "buffer": 0,
            "byteOffset": 35292,
            "byteLength": 7976,
            "target": 34962
        },
        {
            "buffer": 0,
            "byteOffset": 43268,
            "byteLength": 19080,
            "target": 34963
        },
        {
            "buffer": 0,
            "byteOffset": 62348,
            "byteLength": 20736,
            "target": 34962
        },
        {
            "buffer": 0,
            "byteOffset": 83084,
            "byteLength": 20736,
            "target": 34962
        },
        {
            "buffer": 0,
            "byteOffset": 103820,
            "byteLength": 13824,
            "target": 34962
        },
        {
            "buffer": 0,
            "byteOffset": 117644,
            "byteLength": 13284,
            "target": 34963
        },
        {
            "buffer": 0,
            "byteOffset": 130928,
            "byteLength": 12336,
            "target": 34962
        },
        {
            "buffer": 0,
            "byteOffset": 143264,
            "byteLength": 12336,
            "target": 34962
        },
        {
            "buffer": 0,
            "byteOffset": 155600,
            "byteLength": 8224,
            "target": 34962
        }
    ],
    "accessors": [
        {
            "bufferView": 0,
            "byteOffset": 0,
            "componentType": 5125,
            "count": 2841,
            "type": "SCALAR"
        },
        {
            "bufferView": 1,
            "byteOffset": 0,
            "componentType": 5126,
            "count": 997,
            "min": [
                -9,
                0,
                -8.979019165039062
            ],
            "max": [
                9,
                22.8492374420166,
                21.834026336669922
            ],
            "type": "VEC3"
        },
        {
            "bufferView": 2,
            "byteOffset": 0,
            "componentType": 5126,
            "count": 997,
            "type": "VEC3"
        },
        {
            "bufferView": 3,
            "byteOffset": 0,
            "componentType": 5126,
            "count": 997,
            "type": "VEC2"
        },
        {
            "bufferView": 4,
            "byteOffset": 0,
            "componentType": 5125,
            "count": 4770,
            "type": "SCALAR"
        },
        {
            "bufferView": 5,
            "byteOffset": 0,
            "componentType": 5126,
            "count": 1728,
            "min": [
                -9,
                3.0171573162078857,
                -8.98793888092041
            ],
            "max": [
                9,
                20.999387741088867,
                19.999387741088867
            ],
            "type": "VEC3"
        },
        {
            "bufferView": 6,
            "byteOffset": 0,
            "componentType": 5126,
            "count": 1728,
            "type": "VEC3"
        },
        {
            "bufferView": 7,
            "byteOffset": 0,
            "componentType": 5126,
            "count": 1728,
            "type": "VEC2"
        },
        {
            "bufferView": 8,
            "byteOffset": 0,
            "componentType": 5125,
            "count": 3321,
            "type": "SCALAR"
        },
        {
            "bufferView": 9,
            "byteOffset": 0,
            "componentType": 5126,
            "count": 1028,
            "min": [
                -9,
                0,
                -8.979019165039062
            ],
            "max": [
                9,
                22.8492374420166,
                21.83793830871582
            ],
            "type": "VEC3"
        },
        {
            "bufferView": 10,
            "byteOffset": 0,
            "componentType": 5126,
            "count": 1028,
            "type": "VEC3"
        },
        {
            "bufferView": 11,
            "byteOffset": 0,
            "componentType": 5126,
            "count": 1028,
            "type": "VEC2"
        }
    ],
    "images": [
        {
            "uri": "Binary_0.png"
        }
    ],
    "textures": [
        {
            "source": 0
        }
    ],
    "extensionsUsed": [
        "KHR_texture_transform"
    ]
}