{
    "asset": {
        "generator": "https://3dviewer.net",
        "version": "2.0"
    },
    "scene": 0,
    "scenes": [
        {
            "nodes": [
                0
            ]
        }
    ],
    "nodes": [
        {
            "mesh": 0,
            "matrix": [
                -0.009393,
                0.0,
                0.00343,
                0.0,
                -0.00343,
                -0.0,
                -0.009393,
                0.0,
                0.0,
                -0.01,
                0.0,
                0.0,
                0.071576,
                0.330314,
                0.419296,
                1.0
            ]
        }
    ],
    "materials": [
        {
            "name": "Red",
            "pbrMetallicRoughness": {
                "baseColorFactor": [
                    0.450785782828426,
                    0,
                    0,
                    1
                ],
                "metallicFactor": 0,
                "roughnessFactor": 0.42500001192092896
            },
            "emissiveFactor": [
                0,
                0,
                0
            ],
            "doubleSided": true,
            "alphaMode": "OPAQUE",
            "normalTexture": {
                "index": 0,
                "extensions": {
                    "KHR_texture_transform": {
                        "offset": [
                            0,
                            0
                        ],
                        "scale": [
                            0.007874015718698502,
                            0.001312335953116417
                        ],
                        "rotation": 1.5707963705062866
                    }
                }
            }
        }
    ],
    "meshes": [
        {
            "name": "Solid1",
            "primitives": [
                {
                    "attributes": {
                        "POSITION": 1,
                        "NORMAL": 2,
                        "TEXCOORD_0": 3
                    },
                    "mode": 4,
                    "material": 0,
                    "indices": 0
                }
            ]
        }
    ],
    "buffers": [
        {
            "uri": "model.bin",
            "byteLength": 39712
        }
    ],
    "bufferViews": [
        {
            "buffer": 0,
            "byteOffset": 0,
            "byteLength": 9888,
            "target": 34963
        },
        {
            "buffer": 0,
            "byteOffset": 9888,
            "byteLength": 11184,
            "target": 34962
        },
        {
            "buffer": 0,
            "byteOffset": 21072,
            "byteLength": 11184,
            "target": 34962
        },
        {
            "buffer": 0,
            "byteOffset": 32256,
            "byteLength": 7456,
            "target": 34962
        }
    ],
    "accessors": [
        {
            "bufferView": 0,
            "byteOffset": 0,
            "componentType": 5125,
            "count": 2472,
            "type": "SCALAR"
        },
        {
            "bufferView": 1,
            "byteOffset": 0,
            "componentType": 5126,
            "count": 932,
            "min": [
                -3.4577980041503906,
                -5.132206916809082,
                -0.20000000298023224
            ],
            "max": [
                2.4200496673583984,
                6.8302483558654785,
                2
            ],
            "type": "VEC3"
        },
        {
            "bufferView": 2,
            "byteOffset": 0,
            "componentType": 5126,
            "count": 932,
            "type": "VEC3"
        },
        {
            "bufferView": 3,
            "byteOffset": 0,
            "componentType": 5126,
            "count": 932,
            "type": "VEC2"
        }
    ],
    "images": [
        {
            "uri": "Binary_0.png"
        }
    ],
    "textures": [
        {
            "source": 0
        }
    ],
    "extensionsUsed": [
        "KHR_texture_transform"
    ]
}