{
    "asset": {
        "generator": "https://3dviewer.net",
        "version": "2.0"
    },
    "scene": 0,
    "scenes": [
        {
            "nodes": [
                0
            ]
        }
    ],
    "nodes": [
        {
            "mesh": 0,
            "matrix": [
                1.0,
                0.0,
                0.0,
                0.0,
                -0.0,
                0.035242,
                0.999379,
                0.0,
                0.0,
                -0.999379,
                0.035242,
                0.0,
                0.0515,
                -0.00652,
                0.058817,
                1.0
            ]
        }
    ],
    "materials": [
        {
            "name": "IronGray",
            "pbrMetallicRoughness": {
                "baseColorFactor": [
                    0.10224173307914941,
                    0.12213877222015301,
                    0.13286832154414627,
                    1
                ],
                "metallicFactor": 0.8181819915771484,
                "roughnessFactor": 0.699999988079071
            },
            "emissiveFactor": [
                0,
                0,
                0
            ],
            "doubleSided": true,
            "alphaMode": "OPAQUE"
        }
    ],
    "meshes": [
        {
            "name": "Solid1",
            "primitives": [
                {
                    "attributes": {
                        "POSITION": 1,
                        "NORMAL": 2
                    },
                    "mode": 4,
                    "material": 0,
                    "indices": 0
                }
            ]
        }
    ],
    "buffers": [
        {
            "uri": "buffer.bin",
            "byteLength": 54408
        }
    ],
    "bufferViews": [
        {
            "buffer": 0,
            "byteOffset": 0,
            "byteLength": 20808,
            "target": 34963
        },
        {
            "buffer": 0,
            "byteOffset": 20808,
            "byteLength": 16800,
            "target": 34962
        },
        {
            "buffer": 0,
            "byteOffset": 37608,
            "byteLength": 16800,
            "target": 34962
        }
    ],
    "accessors": [
        {
            "bufferView": 0,
            "byteOffset": 0,
            "componentType": 5125,
            "count": 5202,
            "type": "SCALAR"
        },
        {
            "bufferView": 1,
            "byteOffset": 0,
            "componentType": 5126,
            "count": 1400,
            "min": [
                -0.20000000298023224,
                0,
                -0.2229311764240265
            ],
            "max": [
                0.20000000298023224,
                0.20000000298023224,
                0.2229311764240265
            ],
            "type": "VEC3"
        },
        {
            "bufferView": 2,
            "byteOffset": 0,
            "componentType": 5126,
            "count": 1400,
            "type": "VEC3"
        }
    ]
}