{
    "asset": {
        "generator": "https://3dviewer.net",
        "version": "2.0"
    },
    "scene": 0,
    "scenes": [
        {
            "nodes": [
                0
            ]
        }
    ],
    "nodes": [
        {
            "mesh": 0,
            "matrix": [
                0.01,
                0.0,
                0.0,
                0.0,
                0.0,
                0.009848,
                -0.001736,
                0.0,
                0.0,
                0.001736,
                0.009848,
                0.0,
                0.03113,
                0.247369,
                -0.208301,
                1.0
            ]
        }
    ],
    "materials": [
        {
            "name": "Red",
            "pbrMetallicRoughness": {
                "baseColorFactor": [
                    0.450785782828426,
                    0,
                    0,
                    1
                ],
                "metallicFactor": 0,
                "roughnessFactor": 0.42500001192092896
            },
            "emissiveFactor": [
                0,
                0,
                0
            ],
            "doubleSided": true,
            "alphaMode": "OPAQUE",
            "normalTexture": {
                "index": 0,
                "extensions": {
                    "KHR_texture_transform": {
                        "offset": [
                            0,
                            0
                        ],
                        "scale": [
                            0.007874015718698502,
                            0.001312335953116417
                        ],
                        "rotation": 1.5707963705062866
                    }
                }
            }
        },
        {
            "name": "ChromePolishedBlack",
            "pbrMetallicRoughness": {
                "baseColorFactor": [
                    0.4178850708380236,
                    0.4178850708380236,
                    0.4178850708380236,
                    1
                ],
                "metallicFactor": 0,
                "roughnessFactor": 0.10000000149011612
            },
            "emissiveFactor": [
                0,
                0,
                0
            ],
            "doubleSided": true,
            "alphaMode": "OPAQUE"
        }
    ],
    "meshes": [
        {
            "name": "Solid1",
            "primitives": [
                {
                    "attributes": {
                        "POSITION": 1,
                        "NORMAL": 2,
                        "TEXCOORD_0": 3
                    },
                    "mode": 4,
                    "material": 0,
                    "indices": 0
                },
                {
                    "attributes": {
                        "POSITION": 5,
                        "NORMAL": 6,
                        "TEXCOORD_0": 7
                    },
                    "mode": 4,
                    "material": 1,
                    "indices": 4
                }
            ]
        }
    ],
    "buffers": [
        {
            "uri": "model.bin",
            "byteLength": 135080
        }
    ],
    "bufferViews": [
        {
            "buffer": 0,
            "byteOffset": 0,
            "byteLength": 16008,
            "target": 34963
        },
        {
            "buffer": 0,
            "byteOffset": 16008,
            "byteLength": 15984,
            "target": 34962
        },
        {
            "buffer": 0,
            "byteOffset": 31992,
            "byteLength": 15984,
            "target": 34962
        },
        {
            "buffer": 0,
            "byteOffset": 47976,
            "byteLength": 10656,
            "target": 34962
        },
        {
            "buffer": 0,
            "byteOffset": 58632,
            "byteLength": 24000,
            "target": 34963
        },
        {
            "buffer": 0,
            "byteOffset": 82632,
            "byteLength": 19668,
            "target": 34962
        },
        {
            "buffer": 0,
            "byteOffset": 102300,
            "byteLength": 19668,
            "target": 34962
        },
        {
            "buffer": 0,
            "byteOffset": 121968,
            "byteLength": 13112,
            "target": 34962
        }
    ],
    "accessors": [
        {
            "bufferView": 0,
            "byteOffset": 0,
            "componentType": 5125,
            "count": 4002,
            "type": "SCALAR"
        },
        {
            "bufferView": 1,
            "byteOffset": 0,
            "componentType": 5126,
            "count": 1332,
            "min": [
                -4.800000190734863,
                -8.75,
                0
            ],
            "max": [
                4.5880961418151855,
                4.5,
                29.600000381469727
            ],
            "type": "VEC3"
        },
        {
            "bufferView": 2,
            "byteOffset": 0,
            "componentType": 5126,
            "count": 1332,
            "type": "VEC3"
        },
        {
            "bufferView": 3,
            "byteOffset": 0,
            "componentType": 5126,
            "count": 1332,
            "type": "VEC2"
        },
        {
            "bufferView": 4,
            "byteOffset": 0,
            "componentType": 5125,
            "count": 6000,
            "type": "SCALAR"
        },
        {
            "bufferView": 5,
            "byteOffset": 0,
            "componentType": 5126,
            "count": 1639,
            "min": [
                -4.800000190734863,
                -8.75,
                0.75
            ],
            "max": [
                4.5880961418151855,
                4.5,
                29.600000381469727
            ],
            "type": "VEC3"
        },
        {
            "bufferView": 6,
            "byteOffset": 0,
            "componentType": 5126,
            "count": 1639,
            "type": "VEC3"
        },
        {
            "bufferView": 7,
            "byteOffset": 0,
            "componentType": 5126,
            "count": 1639,
            "type": "VEC2"
        }
    ],
    "images": [
        {
            "uri": "Binary_0.png"
        }
    ],
    "textures": [
        {
            "source": 0
        }
    ],
    "extensionsUsed": [
        "KHR_texture_transform"
    ]
}