<svg width="20" height="20" viewBox="0 0 20 20" fill="none" xmlns="http://www.w3.org/2000/svg">
<g clip-path="url(#clip0_144_1976)">
<path d="M12.1135 18.0726C12.1452 18.1515 12.2002 18.2188 12.2712 18.2656C12.3423 18.3123 12.4259 18.3362 12.5109 18.334C12.5959 18.3318 12.6781 18.3037 12.7467 18.2534C12.8152 18.2031 12.8668 18.133 12.8943 18.0526L18.311 2.21928C18.3377 2.14544 18.3428 2.06553 18.3257 1.9889C18.3086 1.91228 18.27 1.8421 18.2145 1.78659C18.159 1.73108 18.0888 1.69252 18.0122 1.67544C17.9356 1.65835 17.8557 1.66344 17.7818 1.69011L1.9485 7.10678C1.86808 7.13435 1.79802 7.18587 1.74772 7.25442C1.69743 7.32296 1.66931 7.40525 1.66713 7.49024C1.66495 7.57523 1.68883 7.65885 1.73555 7.72988C1.78226 7.80091 1.84959 7.85595 1.9285 7.88761L8.53683 10.5376C8.74574 10.6212 8.93554 10.7463 9.0948 10.9053C9.25406 11.0643 9.37948 11.2539 9.4635 11.4626L12.1135 18.0726Z" stroke="#1A1D26" stroke-width="1.66667" stroke-linecap="round" stroke-linejoin="round"/>
<path d="M18.2114 1.79004L9.09473 10.9059" stroke="#1A1D26" stroke-width="1.66667" stroke-linecap="round" stroke-linejoin="round"/>
</g>
<defs>
<clipPath id="clip0_144_1976">
<rect width="20" height="20" fill="white"/>
</clipPath>
</defs>
</svg>
