{
    "asset": {
        "version": "2.0",
        "generator": "Open Asset Import Library (assimp v5.4.0)"
    },
    "extensionsUsed": [
        "KHR_materials_volume",
        "FB_ngon_encoding"
    ],
    "accessors": [
        {
            "bufferView": 0,
            "byteOffset": 0,
            "componentType": 5126,
            "count": 65,
            "type": "VEC3",
            "max": [
                50.0,
                730.0,
                49.860191345214844
            ],
            "min": [
                -49.4415397644043,
                30.000001907348633,
                -49.860191345214844
            ]
        },
        {
            "bufferView": 1,
            "byteOffset": 0,
            "componentType": 5126,
            "count": 65,
            "type": "VEC3",
            "max": [
                1.0,
                1.0,
                0.9972060322761536
            ],
            "min": [
                -0.9888364672660828,
                0.0,
                -0.9972060322761536
            ]
        },
        {
            "bufferView": 2,
            "byteOffset": 0,
            "componentType": 5125,
            "count": 183,
            "type": "SCALAR",
            "max": [
                64
            ],
            "min": [
                0
            ]
        },
        {
            "bufferView": 3,
            "byteOffset": 0,
            "componentType": 5126,
            "count": 848,
            "type": "VEC3",
            "max": [
                225.0,
                30.000001907348633,
                225.0
            ],
            "min": [
                -225.0,
                -280.0,
                -225.0
            ]
        },
        {
            "bufferView": 4,
            "byteOffset": 0,
            "componentType": 5126,
            "count": 848,
            "type": "VEC3",
            "max": [
                1.0,
                1.0,
                1.0
            ],
            "min": [
                -1.0,
                -1.0,
                -1.0
            ]
        },
        {
            "bufferView": 5,
            "byteOffset": 0,
            "componentType": 5125,
            "count": 2979,
            "type": "SCALAR",
            "max": [
                847
            ],
            "min": [
                0
            ]
        },
        {
            "bufferView": 6,
            "byteOffset": 0,
            "componentType": 5126,
            "count": 6057,
            "type": "VEC3",
            "max": [
                254.2428436279297,
                100.0,
                254.2428436279297
            ],
            "min": [
                -254.2428436279297,
                0.0,
                -254.2428436279297
            ]
        },
        {
            "bufferView": 7,
            "byteOffset": 0,
            "componentType": 5126,
            "count": 6057,
            "type": "VEC3",
            "max": [
                1.0,
                1.0,
                1.0
            ],
            "min": [
                -1.0,
                -1.0,
                -1.0
            ]
        },
        {
            "bufferView": 8,
            "byteOffset": 0,
            "componentType": 5126,
            "count": 6057,
            "type": "VEC2",
            "max": [
                0.5718005299568176,
                0.5073696374893188
            ],
            "min": [
                -0.20566296577453613,
                0.49601757526397705
            ]
        },
        {
            "bufferView": 9,
            "byteOffset": 0,
            "componentType": 5125,
            "count": 22992,
            "type": "SCALAR",
            "max": [
                6056
            ],
            "min": [
                0
            ]
        },
        {
            "bufferView": 10,
            "byteOffset": 0,
            "componentType": 5126,
            "count": 19271,
            "type": "VEC3",
            "max": [
                135.0,
                550.0,
                134.99156188964844
            ],
            "min": [
                -135.0,
                -550.0,
                -134.99630737304688
            ]
        },
        {
            "bufferView": 11,
            "byteOffset": 0,
            "componentType": 5126,
            "count": 19271,
            "type": "VEC3",
            "max": [
                1.0,
                1.0,
                1.0
            ],
            "min": [
                -1.0,
                -1.0,
                -1.0
            ]
        },
        {
            "bufferView": 12,
            "byteOffset": 0,
            "componentType": 5125,
            "count": 82518,
            "type": "SCALAR",
            "max": [
                19270
            ],
            "min": [
                0
            ]
        },
        {
            "bufferView": 13,
            "byteOffset": 0,
            "componentType": 5126,
            "count": 4488,
            "type": "VEC3",
            "max": [
                186.25,
                1000.0,
                186.25
            ],
            "min": [
                -186.25,
                0.0,
                -186.25
            ]
        },
        {
            "bufferView": 14,
            "byteOffset": 0,
            "componentType": 5126,
            "count": 4488,
            "type": "VEC3",
            "max": [
                1.0,
                1.0,
                1.0
            ],
            "min": [
                -1.0,
                -1.0,
                -1.0
            ]
        },
        {
            "bufferView": 15,
            "byteOffset": 0,
            "componentType": 5125,
            "count": 25566,
            "type": "SCALAR",
            "max": [
                4487
            ],
            "min": [
                0
            ]
        }
    ],
    "buffers": [
        {
            "byteLength": 1322904,
            "uri": "Suspension_0.bin"
        }
    ],
    "bufferViews": [
        {
            "buffer": 0,
            "byteOffset": 0,
            "byteLength": 780,
            "target": 34962
        },
        {
            "buffer": 0,
            "byteOffset": 780,
            "byteLength": 780,
            "target": 34962
        },
        {
            "buffer": 0,
            "byteOffset": 1560,
            "byteLength": 732,
            "target": 34963
        },
        {
            "buffer": 0,
            "byteOffset": 2292,
            "byteLength": 10176,
            "target": 34962
        },
        {
            "buffer": 0,
            "byteOffset": 12468,
            "byteLength": 10176,
            "target": 34962
        },
        {
            "buffer": 0,
            "byteOffset": 22644,
            "byteLength": 11916,
            "target": 34963
        },
        {
            "buffer": 0,
            "byteOffset": 34560,
            "byteLength": 72684,
            "target": 34962
        },
        {
            "buffer": 0,
            "byteOffset": 107244,
            "byteLength": 72684,
            "target": 34962
        },
        {
            "buffer": 0,
            "byteOffset": 179928,
            "byteLength": 48456,
            "target": 34962
        },
        {
            "buffer": 0,
            "byteOffset": 228384,
            "byteLength": 91968,
            "target": 34963
        },
        {
            "buffer": 0,
            "byteOffset": 320352,
            "byteLength": 231252,
            "target": 34962
        },
        {
            "buffer": 0,
            "byteOffset": 551604,
            "byteLength": 231252,
            "target": 34962
        },
        {
            "buffer": 0,
            "byteOffset": 782856,
            "byteLength": 330072,
            "target": 34963
        },
        {
            "buffer": 0,
            "byteOffset": 1112928,
            "byteLength": 53856,
            "target": 34962
        },
        {
            "buffer": 0,
            "byteOffset": 1166784,
            "byteLength": 53856,
            "target": 34962
        },
        {
            "buffer": 0,
            "byteOffset": 1220640,
            "byteLength": 102264,
            "target": 34963
        }
    ],
    "images": [
        {
            "uri": "textures/image_0.png"
        }
    ],
    "materials": [
        {
            "name": "AnodizedBlack.001",
            "pbrMetallicRoughness": {
                "baseColorFactor": [
                    0.0030959800351411104,
                    0.0030959800351411104,
                    0.0030959800351411104,
                    1.0
                ],
                "roughnessFactor": 0.699999988079071
            },
            "doubleSided": true
        },
        {
            "name": "ChromePolished.002",
            "pbrMetallicRoughness": {
                "baseColorFactor": [
                    0.9049559831619263,
                    0.9049559831619263,
                    0.9049559831619263,
                    1.0
                ],
                "roughnessFactor": 0.07999999821186066
            },
            "doubleSided": true
        },
        {
            "name": "LightRed.002",
            "pbrMetallicRoughness": {
                "baseColorFactor": [
                    0.7874119877815247,
                    0.013411699794232845,
                    0.013411699794232845,
                    1.0
                ],
                "metallicFactor": 0.0,
                "roughnessFactor": 0.42500001192092896
            },
            "normalTexture": {
                "index": 0
            },
            "doubleSided": true
        },
        {
            "name": "Opal.001",
            "pbrMetallicRoughness": {
                "baseColorFactor": [
                    0.6938719749450684,
                    0.6866850256919861,
                    0.8148469924926758,
                    1.0
                ],
                "metallicFactor": 0.0,
                "roughnessFactor": 0.4000000059604645
            },
            "doubleSided": true
        },
        {
            "name": "BlueWallPaintGlossy.001",
            "pbrMetallicRoughness": {
                "baseColorFactor": [
                    0.009134059771895409,
                    0.018500199541449547,
                    0.9386860132217407,
                    1.0
                ],
                "metallicFactor": 0.0,
                "roughnessFactor": 0.47999998927116394
            },
            "doubleSided": true
        }
    ],
    "meshes": [
        {
            "name": "meshes[0]",
            "primitives": [
                {
                    "mode": 4,
                    "material": 0,
                    "indices": 2,
                    "attributes": {
                        "POSITION": 0,
                        "NORMAL": 1
                    }
                }
            ]
        },
        {
            "name": "meshes[1]",
            "primitives": [
                {
                    "mode": 4,
                    "material": 1,
                    "indices": 5,
                    "attributes": {
                        "POSITION": 3,
                        "NORMAL": 4
                    }
                }
            ]
        },
        {
            "name": "meshes[2]",
            "primitives": [
                {
                    "mode": 4,
                    "material": 2,
                    "indices": 9,
                    "attributes": {
                        "POSITION": 6,
                        "NORMAL": 7,
                        "TEXCOORD_0": 8
                    }
                }
            ]
        },
        {
            "name": "meshes[3]",
            "primitives": [
                {
                    "mode": 4,
                    "material": 3,
                    "indices": 12,
                    "attributes": {
                        "POSITION": 10,
                        "NORMAL": 11
                    }
                }
            ]
        },
        {
            "name": "meshes[4]",
            "primitives": [
                {
                    "mode": 4,
                    "material": 4,
                    "indices": 15,
                    "attributes": {
                        "POSITION": 13,
                        "NORMAL": 14
                    }
                }
            ]
        }
    ],
    "nodes": [
        {
            "name": "Suspension",
            "children": [
                1,
                5,
                7,
                9
            ]
        },
        {
            "name": "BASE1",
            "matrix": [
                -0.0057205515913665295,
                0.0,
                0.0006084622000344098,
                0.0,
                0.0,
                0.005752818658947945,
                0.0,
                0.0,
                -0.0006084622000344098,
                0.0,
                -0.0057205515913665295,
                0.0,
                0.002614983357489109,
                -0.035066306591033936,
                0.011236391961574554,
                1.0
            ],
            "children": [
                2
            ],
            "extras": {
                "name": "BASE:1"
            }
        },
        {
            "name": "Solid1067",
            "matrix": [
                0.009999999776482582,
                0.0,
                0.0,
                0.0,
                0.0,
                0.010000000707805157,
                0.0,
                0.0,
                0.0,
                0.0,
                0.009999999776482582,
                0.0,
                0.0,
                0.0,
                0.0,
                1.0
            ],
            "children": [
                3,
                4
            ],
            "extras": {
                "name": "Solid1.067"
            }
        },
        {
            "name": "Solid1037",
            "mesh": 0
        },
        {
            "name": "Solid1037_1",
            "mesh": 1
        },
        {
            "name": "NUT1",
            "matrix": [
                0.00535598024725914,
                0.0,
                -0.002099622506648302,
                0.0,
                0.0,
                0.005752818658947945,
                0.0,
                0.0,
                0.002099622506648302,
                0.0,
                0.00535598024725914,
                0.0,
                0.002614983357489109,
                0.02418769896030426,
                0.011236391961574554,
                1.0
            ],
            "children": [
                6
            ],
            "extras": {
                "name": "NUT:1"
            }
        },
        {
            "name": "Solid1068",
            "matrix": [
                0.009999998845160007,
                0.0,
                0.0,
                0.0,
                0.0,
                0.009999999776482582,
                0.0,
                0.0,
                0.0,
                0.0,
                0.009999998845160007,
                0.0,
                0.0,
                0.0,
                0.0,
                1.0
            ],
            "mesh": 2,
            "extras": {
                "name": "Solid1.068"
            }
        },
        {
            "name": "ROD1",
            "matrix": [
                -0.005752818658947945,
                0.0,
                3.439784030403358e-35,
                0.0,
                0.0,
                0.005752818658947945,
                0.0,
                0.0,
                -3.439784030403358e-35,
                0.0,
                -0.005752818658947945,
                0.0,
                0.002614983357489109,
                0.0264437198638916,
                0.011236391961574554,
                1.0
            ],
            "children": [
                8
            ],
            "extras": {
                "name": "ROD:1"
            }
        },
        {
            "name": "Solid1069",
            "matrix": [
                0.009999999776482582,
                0.0,
                0.0,
                0.0,
                0.0,
                0.009999999776482582,
                0.0,
                0.0,
                0.0,
                0.0,
                0.009999999776482582,
                0.0,
                0.0,
                0.0,
                0.0,
                1.0
            ],
            "mesh": 3,
            "extras": {
                "name": "Solid1.069"
            }
        },
        {
            "name": "SPRING1",
            "matrix": [
                0.0057205515913665295,
                0.0,
                -0.0006084622000344098,
                0.0,
                0.0,
                0.005752818658947945,
                0.0,
                0.0,
                0.0006084622000344098,
                0.0,
                0.0057205515913665295,
                0.0,
                0.002614983357489109,
                -0.03334049880504608,
                0.011236391961574554,
                1.0
            ],
            "children": [
                10
            ],
            "extras": {
                "name": "SPRING:1"
            }
        },
        {
            "name": "Solid1070",
            "matrix": [
                0.009999999776482582,
                0.0,
                0.0,
                0.0,
                0.0,
                0.010000000707805157,
                0.0,
                0.0,
                0.0,
                0.0,
                0.009999999776482582,
                0.0,
                0.0,
                0.0,
                0.0,
                1.0
            ],
            "mesh": 4,
            "extras": {
                "name": "Solid1.070"
            }
        }
    ],
    "samplers": [
        {
            "magFilter": 9729,
            "minFilter": 9987
        }
    ],
    "scenes": [
        {
            "nodes": [
                0
            ]
        }
    ],
    "textures": [
        {
            "source": 0,
            "sampler": 0
        }
    ],
    "scene": 0
}