{
    "asset": {
        "generator": "https://3dviewer.net",
        "version": "2.0"
    },
    "scene": 0,
    "scenes": [
        {
            "nodes": [
                0
            ]
        }
    ],
    "nodes": [
        {
            "mesh": 0,
            "matrix": [
                0.01,
                0,
                0,
                0,
                0,
                0.01,
                0,
                0,
                0,
                0,
                0.01,
                0,
                0,
                0,
                0,
                1
            ]
        }
    ],
    "materials": [
        {
            "name": "Default",
            "pbrMetallicRoughness": {
                "baseColorFactor": [
                    0.5209955731953768,
                    0.5209955731953768,
                    0.5209955731953768,
                    1
                ],
                "metallicFactor": 0,
                "roughnessFactor": 0.699999988079071
            },
            "emissiveFactor": [
                0,
                0,
                0
            ],
            "doubleSided": true,
            "alphaMode": "OPAQUE"
        }
    ],
    "meshes": [
        {
            "name": "Solid1",
            "primitives": [
                {
                    "attributes": {
                        "POSITION": 1,
                        "NORMAL": 2
                    },
                    "mode": 4,
                    "material": 0,
                    "indices": 0
                }
            ]
        }
    ],
    "buffers": [
        {
            "uri": "model.bin",
            "byteLength": 8352
        }
    ],
    "bufferViews": [
        {
            "buffer": 0,
            "byteOffset": 0,
            "byteLength": 2736,
            "target": 34963
        },
        {
            "buffer": 0,
            "byteOffset": 2736,
            "byteLength": 2808,
            "target": 34962
        },
        {
            "buffer": 0,
            "byteOffset": 5544,
            "byteLength": 2808,
            "target": 34962
        }
    ],
    "accessors": [
        {
            "bufferView": 0,
            "byteOffset": 0,
            "componentType": 5125,
            "count": 684,
            "type": "SCALAR"
        },
        {
            "bufferView": 1,
            "byteOffset": 0,
            "componentType": 5126,
            "count": 234,
            "min": [
                -0.942650556564331,
                0,
                -0.9412680864334106
            ],
            "max": [
                0.942650556564331,
                1,
                0.9412680864334106
            ],
            "type": "VEC3"
        },
        {
            "bufferView": 2,
            "byteOffset": 0,
            "componentType": 5126,
            "count": 234,
            "type": "VEC3"
        }
    ]
}