{
    "asset": {
        "generator": "https://3dviewer.net",
        "version": "2.0"
    },
    "scene": 0,
    "scenes": [
        {
            "nodes": [
                0
            ]
        }
    ],
    "nodes": [
        {
            "mesh": 0,
            "matrix": [
                0.01,
                0,
                0,
                0,
                0,
                0.01,
                0,
                0,
                0,
                0,
                0.01,
                0,
                0,
                0,
                0,
                1
            ]
        }
    ],
    "materials": [
        {
            "name": "Cyan",
            "pbrMetallicRoughness": {
                "baseColorFactor": [
                    0.02955683443236377,
                    0.24228112245478564,
                    0.7681511472425809,
                    1
                ],
                "metallicFactor": 0,
                "roughnessFactor": 0.42500001192092896
            },
            "emissiveFactor": [
                0,
                0,
                0
            ],
            "doubleSided": true,
            "alphaMode": "OPAQUE",
            "normalTexture": {
                "index": 0,
                "extensions": {
                    "KHR_texture_transform": {
                        "offset": [
                            0,
                            0
                        ],
                        "scale": [
                            0.007874015718698502,
                            0.001312335953116417
                        ],
                        "rotation": 1.5707963705062866
                    }
                }
            }
        }
    ],
    "meshes": [
        {
            "name": "Solid1",
            "primitives": [
                {
                    "attributes": {
                        "POSITION": 1,
                        "NORMAL": 2,
                        "TEXCOORD_0": 3
                    },
                    "mode": 4,
                    "material": 0,
                    "indices": 0
                }
            ]
        }
    ],
    "buffers": [
        {
            "uri": "model.bin",
            "byteLength": 293568
        }
    ],
    "bufferViews": [
        {
            "buffer": 0,
            "byteOffset": 0,
            "byteLength": 78624,
            "target": 34963
        },
        {
            "buffer": 0,
            "byteOffset": 78624,
            "byteLength": 80604,
            "target": 34962
        },
        {
            "buffer": 0,
            "byteOffset": 159228,
            "byteLength": 80604,
            "target": 34962
        },
        {
            "buffer": 0,
            "byteOffset": 239832,
            "byteLength": 53736,
            "target": 34962
        }
    ],
    "accessors": [
        {
            "bufferView": 0,
            "byteOffset": 0,
            "componentType": 5125,
            "count": 19656,
            "type": "SCALAR"
        },
        {
            "bufferView": 1,
            "byteOffset": 0,
            "componentType": 5126,
            "count": 6717,
            "min": [
                -6.149798393249512,
                -0.49630478024482727,
                0
            ],
            "max": [
                6.149798393249512,
                16.875,
                1.8999415636062622
            ],
            "type": "VEC3"
        },
        {
            "bufferView": 2,
            "byteOffset": 0,
            "componentType": 5126,
            "count": 6717,
            "type": "VEC3"
        },
        {
            "bufferView": 3,
            "byteOffset": 0,
            "componentType": 5126,
            "count": 6717,
            "type": "VEC2"
        }
    ],
    "images": [
        {
            "uri": "Binary_0.png"
        }
    ],
    "textures": [
        {
            "source": 0
        }
    ],
    "extensionsUsed": [
        "KHR_texture_transform"
    ]
}